<?xml version="1.0" encoding="utf-8" standalone="no"?>
<!DOCTYPE svg PUBLIC "-//W3C//DTD SVG 1.1//EN"
  "http://www.w3.org/Graphics/SVG/1.1/DTD/svg11.dtd">
<svg xmlns:xlink="http://www.w3.org/1999/xlink" width="1208pt" height="512.197375pt" viewBox="0 0 1208 512.197375" xmlns="http://www.w3.org/2000/svg" version="1.1">
 <metadata>
  <rdf:RDF xmlns:dc="http://purl.org/dc/elements/1.1/" xmlns:cc="http://creativecommons.org/ns#" xmlns:rdf="http://www.w3.org/1999/02/22-rdf-syntax-ns#">
   <cc:Work>
    <dc:type rdf:resource="http://purl.org/dc/dcmitype/StillImage"/>
    <dc:date>2025-08-15T09:19:53.349484</dc:date>
    <dc:format>image/svg+xml</dc:format>
    <dc:creator>
     <cc:Agent>
      <dc:title>Matplotlib v3.10.0, https://matplotlib.org/</dc:title>
     </cc:Agent>
    </dc:creator>
   </cc:Work>
  </rdf:RDF>
 </metadata>
 <defs>
  <style type="text/css">*{stroke-linejoin: round; stroke-linecap: butt}</style>
 </defs>
 <g id="figure_1">
  <g id="patch_1">
   <path d="M -0 512.197375 
L 1208 512.197375 
L 1208 0 
L -0 0 
z
" style="fill: #ffffff"/>
  </g>
  <g id="axes_1">
   <g id="patch_2">
    <path d="M 84.8 455.284875 
L 442.874866 455.284875 
L 442.874866 28.396875 
L 84.8 28.396875 
z
" style="fill: #ffffff"/>
   </g>
   <g id="matplotlib.axis_1">
    <g id="xtick_1">
     <g id="line2d_1">
      <path d="M 101.07613 455.284875 
L 101.07613 28.396875 
" clip-path="url(#pc32df7f471)" style="fill: none; stroke-dasharray: 2.96,1.28; stroke-dashoffset: 0; stroke: #b0b0b0; stroke-width: 0.8"/>
     </g>
     <g id="line2d_2">
      <defs>
       <path id="me59e7e543c" d="M 0 0 
L 0 3.5 
" style="stroke: #000000; stroke-width: 0.8"/>
      </defs>
      <g>
       <use xlink:href="#me59e7e543c" x="101.07613" y="455.284875" style="stroke: #000000; stroke-width: 0.8"/>
      </g>
     </g>
     <g id="text_1">
      <!-- 0 -->
      <g transform="translate(94.71363 477.48175) scale(0.2 -0.2)">
       <defs>
        <path id="DejaVuSans-30" d="M 2034 4250 
Q 1547 4250 1301 3770 
Q 1056 3291 1056 2328 
Q 1056 1369 1301 889 
Q 1547 409 2034 409 
Q 2525 409 2770 889 
Q 3016 1369 3016 2328 
Q 3016 3291 2770 3770 
Q 2525 4250 2034 4250 
z
M 2034 4750 
Q 2819 4750 3233 4129 
Q 3647 3509 3647 2328 
Q 3647 1150 3233 529 
Q 2819 -91 2034 -91 
Q 1250 -91 836 529 
Q 422 1150 422 2328 
Q 422 3509 836 4129 
Q 1250 4750 2034 4750 
z
" transform="scale(0.015625)"/>
       </defs>
       <use xlink:href="#DejaVuSans-30"/>
      </g>
     </g>
    </g>
    <g id="xtick_2">
     <g id="line2d_3">
      <path d="M 177.221769 455.284875 
L 177.221769 28.396875 
" clip-path="url(#pc32df7f471)" style="fill: none; stroke-dasharray: 2.96,1.28; stroke-dashoffset: 0; stroke: #b0b0b0; stroke-width: 0.8"/>
     </g>
     <g id="line2d_4">
      <g>
       <use xlink:href="#me59e7e543c" x="177.221769" y="455.284875" style="stroke: #000000; stroke-width: 0.8"/>
      </g>
     </g>
     <g id="text_2">
      <!-- 100 -->
      <g transform="translate(158.134269 477.48175) scale(0.2 -0.2)">
       <defs>
        <path id="DejaVuSans-31" d="M 794 531 
L 1825 531 
L 1825 4091 
L 703 3866 
L 703 4441 
L 1819 4666 
L 2450 4666 
L 2450 531 
L 3481 531 
L 3481 0 
L 794 0 
L 794 531 
z
" transform="scale(0.015625)"/>
       </defs>
       <use xlink:href="#DejaVuSans-31"/>
       <use xlink:href="#DejaVuSans-30" transform="translate(63.623047 0)"/>
       <use xlink:href="#DejaVuSans-30" transform="translate(127.246094 0)"/>
      </g>
     </g>
    </g>
    <g id="xtick_3">
     <g id="line2d_5">
      <path d="M 253.367408 455.284875 
L 253.367408 28.396875 
" clip-path="url(#pc32df7f471)" style="fill: none; stroke-dasharray: 2.96,1.28; stroke-dashoffset: 0; stroke: #b0b0b0; stroke-width: 0.8"/>
     </g>
     <g id="line2d_6">
      <g>
       <use xlink:href="#me59e7e543c" x="253.367408" y="455.284875" style="stroke: #000000; stroke-width: 0.8"/>
      </g>
     </g>
     <g id="text_3">
      <!-- 200 -->
      <g transform="translate(234.279908 477.48175) scale(0.2 -0.2)">
       <defs>
        <path id="DejaVuSans-32" d="M 1228 531 
L 3431 531 
L 3431 0 
L 469 0 
L 469 531 
Q 828 903 1448 1529 
Q 2069 2156 2228 2338 
Q 2531 2678 2651 2914 
Q 2772 3150 2772 3378 
Q 2772 3750 2511 3984 
Q 2250 4219 1831 4219 
Q 1534 4219 1204 4116 
Q 875 4013 500 3803 
L 500 4441 
Q 881 4594 1212 4672 
Q 1544 4750 1819 4750 
Q 2544 4750 2975 4387 
Q 3406 4025 3406 3419 
Q 3406 3131 3298 2873 
Q 3191 2616 2906 2266 
Q 2828 2175 2409 1742 
Q 1991 1309 1228 531 
z
" transform="scale(0.015625)"/>
       </defs>
       <use xlink:href="#DejaVuSans-32"/>
       <use xlink:href="#DejaVuSans-30" transform="translate(63.623047 0)"/>
       <use xlink:href="#DejaVuSans-30" transform="translate(127.246094 0)"/>
      </g>
     </g>
    </g>
    <g id="xtick_4">
     <g id="line2d_7">
      <path d="M 329.513047 455.284875 
L 329.513047 28.396875 
" clip-path="url(#pc32df7f471)" style="fill: none; stroke-dasharray: 2.96,1.28; stroke-dashoffset: 0; stroke: #b0b0b0; stroke-width: 0.8"/>
     </g>
     <g id="line2d_8">
      <g>
       <use xlink:href="#me59e7e543c" x="329.513047" y="455.284875" style="stroke: #000000; stroke-width: 0.8"/>
      </g>
     </g>
     <g id="text_4">
      <!-- 300 -->
      <g transform="translate(310.425547 477.48175) scale(0.2 -0.2)">
       <defs>
        <path id="DejaVuSans-33" d="M 2597 2516 
Q 3050 2419 3304 2112 
Q 3559 1806 3559 1356 
Q 3559 666 3084 287 
Q 2609 -91 1734 -91 
Q 1441 -91 1130 -33 
Q 819 25 488 141 
L 488 750 
Q 750 597 1062 519 
Q 1375 441 1716 441 
Q 2309 441 2620 675 
Q 2931 909 2931 1356 
Q 2931 1769 2642 2001 
Q 2353 2234 1838 2234 
L 1294 2234 
L 1294 2753 
L 1863 2753 
Q 2328 2753 2575 2939 
Q 2822 3125 2822 3475 
Q 2822 3834 2567 4026 
Q 2313 4219 1838 4219 
Q 1578 4219 1281 4162 
Q 984 4106 628 3988 
L 628 4550 
Q 988 4650 1302 4700 
Q 1616 4750 1894 4750 
Q 2613 4750 3031 4423 
Q 3450 4097 3450 3541 
Q 3450 3153 3228 2886 
Q 3006 2619 2597 2516 
z
" transform="scale(0.015625)"/>
       </defs>
       <use xlink:href="#DejaVuSans-33"/>
       <use xlink:href="#DejaVuSans-30" transform="translate(63.623047 0)"/>
       <use xlink:href="#DejaVuSans-30" transform="translate(127.246094 0)"/>
      </g>
     </g>
    </g>
    <g id="xtick_5">
     <g id="line2d_9">
      <path d="M 405.658685 455.284875 
L 405.658685 28.396875 
" clip-path="url(#pc32df7f471)" style="fill: none; stroke-dasharray: 2.96,1.28; stroke-dashoffset: 0; stroke: #b0b0b0; stroke-width: 0.8"/>
     </g>
     <g id="line2d_10">
      <g>
       <use xlink:href="#me59e7e543c" x="405.658685" y="455.284875" style="stroke: #000000; stroke-width: 0.8"/>
      </g>
     </g>
     <g id="text_5">
      <!-- 400 -->
      <g transform="translate(386.571185 477.48175) scale(0.2 -0.2)">
       <defs>
        <path id="DejaVuSans-34" d="M 2419 4116 
L 825 1625 
L 2419 1625 
L 2419 4116 
z
M 2253 4666 
L 3047 4666 
L 3047 1625 
L 3713 1625 
L 3713 1100 
L 3047 1100 
L 3047 0 
L 2419 0 
L 2419 1100 
L 313 1100 
L 313 1709 
L 2253 4666 
z
" transform="scale(0.015625)"/>
       </defs>
       <use xlink:href="#DejaVuSans-34"/>
       <use xlink:href="#DejaVuSans-30" transform="translate(63.623047 0)"/>
       <use xlink:href="#DejaVuSans-30" transform="translate(127.246094 0)"/>
      </g>
     </g>
    </g>
    <g id="text_6">
     <!-- Depth z [nm] -->
     <g transform="translate(197.892121 500.838) scale(0.2 -0.2)">
      <defs>
       <path id="DejaVuSans-44" d="M 1259 4147 
L 1259 519 
L 2022 519 
Q 2988 519 3436 956 
Q 3884 1394 3884 2338 
Q 3884 3275 3436 3711 
Q 2988 4147 2022 4147 
L 1259 4147 
z
M 628 4666 
L 1925 4666 
Q 3281 4666 3915 4102 
Q 4550 3538 4550 2338 
Q 4550 1131 3912 565 
Q 3275 0 1925 0 
L 628 0 
L 628 4666 
z
" transform="scale(0.015625)"/>
       <path id="DejaVuSans-65" d="M 3597 1894 
L 3597 1613 
L 953 1613 
Q 991 1019 1311 708 
Q 1631 397 2203 397 
Q 2534 397 2845 478 
Q 3156 559 3463 722 
L 3463 178 
Q 3153 47 2828 -22 
Q 2503 -91 2169 -91 
Q 1331 -91 842 396 
Q 353 884 353 1716 
Q 353 2575 817 3079 
Q 1281 3584 2069 3584 
Q 2775 3584 3186 3129 
Q 3597 2675 3597 1894 
z
M 3022 2063 
Q 3016 2534 2758 2815 
Q 2500 3097 2075 3097 
Q 1594 3097 1305 2825 
Q 1016 2553 972 2059 
L 3022 2063 
z
" transform="scale(0.015625)"/>
       <path id="DejaVuSans-70" d="M 1159 525 
L 1159 -1331 
L 581 -1331 
L 581 3500 
L 1159 3500 
L 1159 2969 
Q 1341 3281 1617 3432 
Q 1894 3584 2278 3584 
Q 2916 3584 3314 3078 
Q 3713 2572 3713 1747 
Q 3713 922 3314 415 
Q 2916 -91 2278 -91 
Q 1894 -91 1617 61 
Q 1341 213 1159 525 
z
M 3116 1747 
Q 3116 2381 2855 2742 
Q 2594 3103 2138 3103 
Q 1681 3103 1420 2742 
Q 1159 2381 1159 1747 
Q 1159 1113 1420 752 
Q 1681 391 2138 391 
Q 2594 391 2855 752 
Q 3116 1113 3116 1747 
z
" transform="scale(0.015625)"/>
       <path id="DejaVuSans-74" d="M 1172 4494 
L 1172 3500 
L 2356 3500 
L 2356 3053 
L 1172 3053 
L 1172 1153 
Q 1172 725 1289 603 
Q 1406 481 1766 481 
L 2356 481 
L 2356 0 
L 1766 0 
Q 1100 0 847 248 
Q 594 497 594 1153 
L 594 3053 
L 172 3053 
L 172 3500 
L 594 3500 
L 594 4494 
L 1172 4494 
z
" transform="scale(0.015625)"/>
       <path id="DejaVuSans-68" d="M 3513 2113 
L 3513 0 
L 2938 0 
L 2938 2094 
Q 2938 2591 2744 2837 
Q 2550 3084 2163 3084 
Q 1697 3084 1428 2787 
Q 1159 2491 1159 1978 
L 1159 0 
L 581 0 
L 581 4863 
L 1159 4863 
L 1159 2956 
Q 1366 3272 1645 3428 
Q 1925 3584 2291 3584 
Q 2894 3584 3203 3211 
Q 3513 2838 3513 2113 
z
" transform="scale(0.015625)"/>
       <path id="DejaVuSans-20" transform="scale(0.015625)"/>
       <path id="DejaVuSans-7a" d="M 353 3500 
L 3084 3500 
L 3084 2975 
L 922 459 
L 3084 459 
L 3084 0 
L 275 0 
L 275 525 
L 2438 3041 
L 353 3041 
L 353 3500 
z
" transform="scale(0.015625)"/>
       <path id="DejaVuSans-5b" d="M 550 4863 
L 1875 4863 
L 1875 4416 
L 1125 4416 
L 1125 -397 
L 1875 -397 
L 1875 -844 
L 550 -844 
L 550 4863 
z
" transform="scale(0.015625)"/>
       <path id="DejaVuSans-6e" d="M 3513 2113 
L 3513 0 
L 2938 0 
L 2938 2094 
Q 2938 2591 2744 2837 
Q 2550 3084 2163 3084 
Q 1697 3084 1428 2787 
Q 1159 2491 1159 1978 
L 1159 0 
L 581 0 
L 581 3500 
L 1159 3500 
L 1159 2956 
Q 1366 3272 1645 3428 
Q 1925 3584 2291 3584 
Q 2894 3584 3203 3211 
Q 3513 2838 3513 2113 
z
" transform="scale(0.015625)"/>
       <path id="DejaVuSans-6d" d="M 3328 2828 
Q 3544 3216 3844 3400 
Q 4144 3584 4550 3584 
Q 5097 3584 5394 3201 
Q 5691 2819 5691 2113 
L 5691 0 
L 5113 0 
L 5113 2094 
Q 5113 2597 4934 2840 
Q 4756 3084 4391 3084 
Q 3944 3084 3684 2787 
Q 3425 2491 3425 1978 
L 3425 0 
L 2847 0 
L 2847 2094 
Q 2847 2600 2669 2842 
Q 2491 3084 2119 3084 
Q 1678 3084 1418 2786 
Q 1159 2488 1159 1978 
L 1159 0 
L 581 0 
L 581 3500 
L 1159 3500 
L 1159 2956 
Q 1356 3278 1631 3431 
Q 1906 3584 2284 3584 
Q 2666 3584 2933 3390 
Q 3200 3197 3328 2828 
z
" transform="scale(0.015625)"/>
       <path id="DejaVuSans-5d" d="M 1947 4863 
L 1947 -844 
L 622 -844 
L 622 -397 
L 1369 -397 
L 1369 4416 
L 622 4416 
L 622 4863 
L 1947 4863 
z
" transform="scale(0.015625)"/>
      </defs>
      <use xlink:href="#DejaVuSans-44"/>
      <use xlink:href="#DejaVuSans-65" transform="translate(77.001953 0)"/>
      <use xlink:href="#DejaVuSans-70" transform="translate(138.525391 0)"/>
      <use xlink:href="#DejaVuSans-74" transform="translate(202.001953 0)"/>
      <use xlink:href="#DejaVuSans-68" transform="translate(241.210938 0)"/>
      <use xlink:href="#DejaVuSans-20" transform="translate(304.589844 0)"/>
      <use xlink:href="#DejaVuSans-7a" transform="translate(336.376953 0)"/>
      <use xlink:href="#DejaVuSans-20" transform="translate(388.867188 0)"/>
      <use xlink:href="#DejaVuSans-5b" transform="translate(420.654297 0)"/>
      <use xlink:href="#DejaVuSans-6e" transform="translate(459.667969 0)"/>
      <use xlink:href="#DejaVuSans-6d" transform="translate(523.046875 0)"/>
      <use xlink:href="#DejaVuSans-5d" transform="translate(620.458984 0)"/>
     </g>
    </g>
   </g>
   <g id="matplotlib.axis_2">
    <g id="ytick_1">
     <g id="line2d_11">
      <path d="M 84.8 28.396875 
L 442.874866 28.396875 
" clip-path="url(#pc32df7f471)" style="fill: none; stroke-dasharray: 2.96,1.28; stroke-dashoffset: 0; stroke: #b0b0b0; stroke-width: 0.8"/>
     </g>
     <g id="line2d_12">
      <defs>
       <path id="ma7fc75725d" d="M 0 0 
L -3.5 0 
" style="stroke: #000000; stroke-width: 0.8"/>
      </defs>
      <g>
       <use xlink:href="#ma7fc75725d" x="84.8" y="28.396875" style="stroke: #000000; stroke-width: 0.8"/>
      </g>
     </g>
     <g id="text_7">
      <!-- $\mathdefault{10^{22}}$ -->
      <g transform="translate(33.6 35.995312) scale(0.2 -0.2)">
       <use xlink:href="#DejaVuSans-31" transform="translate(0 0.765625)"/>
       <use xlink:href="#DejaVuSans-30" transform="translate(63.623047 0.765625)"/>
       <use xlink:href="#DejaVuSans-32" transform="translate(128.203125 39.046875) scale(0.7)"/>
       <use xlink:href="#DejaVuSans-32" transform="translate(172.739258 39.046875) scale(0.7)"/>
      </g>
     </g>
    </g>
    <g id="ytick_2">
     <g id="line2d_13">
      <path d="M 84.8 455.284875 
L 442.874866 455.284875 
" clip-path="url(#pc32df7f471)" style="fill: none; stroke-dasharray: 2.96,1.28; stroke-dashoffset: 0; stroke: #b0b0b0; stroke-width: 0.8"/>
     </g>
     <g id="line2d_14">
      <defs>
       <path id="mfd52a3f5c9" d="M 0 0 
L -2 0 
" style="stroke: #000000; stroke-width: 0.6"/>
      </defs>
      <g>
       <use xlink:href="#mfd52a3f5c9" x="84.8" y="455.284875" style="stroke: #000000; stroke-width: 0.6"/>
      </g>
     </g>
     <g id="text_8">
      <!-- $\mathdefault{2\times10^{21}}$ -->
      <g transform="translate(38.7 459.084094) scale(0.1 -0.1)">
       <defs>
        <path id="DejaVuSans-d7" d="M 4488 3438 
L 3059 2003 
L 4488 575 
L 4116 197 
L 2681 1631 
L 1247 197 
L 878 575 
L 2303 2003 
L 878 3438 
L 1247 3816 
L 2681 2381 
L 4116 3816 
L 4488 3438 
z
" transform="scale(0.015625)"/>
       </defs>
       <use xlink:href="#DejaVuSans-32" transform="translate(0 0.765625)"/>
       <use xlink:href="#DejaVuSans-d7" transform="translate(83.105469 0.765625)"/>
       <use xlink:href="#DejaVuSans-31" transform="translate(186.376953 0.765625)"/>
       <use xlink:href="#DejaVuSans-30" transform="translate(250 0.765625)"/>
       <use xlink:href="#DejaVuSans-32" transform="translate(314.580078 39.046875) scale(0.7)"/>
       <use xlink:href="#DejaVuSans-31" transform="translate(359.116211 39.046875) scale(0.7)"/>
      </g>
     </g>
    </g>
    <g id="ytick_3">
     <g id="line2d_15">
      <path d="M 84.8 347.739136 
L 442.874866 347.739136 
" clip-path="url(#pc32df7f471)" style="fill: none; stroke-dasharray: 2.96,1.28; stroke-dashoffset: 0; stroke: #b0b0b0; stroke-width: 0.8"/>
     </g>
     <g id="line2d_16">
      <g>
       <use xlink:href="#mfd52a3f5c9" x="84.8" y="347.739136" style="stroke: #000000; stroke-width: 0.6"/>
      </g>
     </g>
     <g id="text_9">
      <!-- $\mathdefault{3\times10^{21}}$ -->
      <g transform="translate(38.7 351.538355) scale(0.1 -0.1)">
       <use xlink:href="#DejaVuSans-33" transform="translate(0 0.765625)"/>
       <use xlink:href="#DejaVuSans-d7" transform="translate(83.105469 0.765625)"/>
       <use xlink:href="#DejaVuSans-31" transform="translate(186.376953 0.765625)"/>
       <use xlink:href="#DejaVuSans-30" transform="translate(250 0.765625)"/>
       <use xlink:href="#DejaVuSans-32" transform="translate(314.580078 39.046875) scale(0.7)"/>
       <use xlink:href="#DejaVuSans-31" transform="translate(359.116211 39.046875) scale(0.7)"/>
      </g>
     </g>
    </g>
    <g id="ytick_4">
     <g id="line2d_17">
      <path d="M 84.8 271.43422 
L 442.874866 271.43422 
" clip-path="url(#pc32df7f471)" style="fill: none; stroke-dasharray: 2.96,1.28; stroke-dashoffset: 0; stroke: #b0b0b0; stroke-width: 0.8"/>
     </g>
     <g id="line2d_18">
      <g>
       <use xlink:href="#mfd52a3f5c9" x="84.8" y="271.43422" style="stroke: #000000; stroke-width: 0.6"/>
      </g>
     </g>
     <g id="text_10">
      <!-- $\mathdefault{4\times10^{21}}$ -->
      <g transform="translate(38.7 275.233439) scale(0.1 -0.1)">
       <use xlink:href="#DejaVuSans-34" transform="translate(0 0.765625)"/>
       <use xlink:href="#DejaVuSans-d7" transform="translate(83.105469 0.765625)"/>
       <use xlink:href="#DejaVuSans-31" transform="translate(186.376953 0.765625)"/>
       <use xlink:href="#DejaVuSans-30" transform="translate(250 0.765625)"/>
       <use xlink:href="#DejaVuSans-32" transform="translate(314.580078 39.046875) scale(0.7)"/>
       <use xlink:href="#DejaVuSans-31" transform="translate(359.116211 39.046875) scale(0.7)"/>
      </g>
     </g>
    </g>
    <g id="ytick_5">
     <g id="line2d_19">
      <path d="M 84.8 212.24753 
L 442.874866 212.24753 
" clip-path="url(#pc32df7f471)" style="fill: none; stroke-dasharray: 2.96,1.28; stroke-dashoffset: 0; stroke: #b0b0b0; stroke-width: 0.8"/>
     </g>
     <g id="line2d_20">
      <g>
       <use xlink:href="#mfd52a3f5c9" x="84.8" y="212.24753" style="stroke: #000000; stroke-width: 0.6"/>
      </g>
     </g>
    </g>
    <g id="ytick_6">
     <g id="line2d_21">
      <path d="M 84.8 163.888482 
L 442.874866 163.888482 
" clip-path="url(#pc32df7f471)" style="fill: none; stroke-dasharray: 2.96,1.28; stroke-dashoffset: 0; stroke: #b0b0b0; stroke-width: 0.8"/>
     </g>
     <g id="line2d_22">
      <g>
       <use xlink:href="#mfd52a3f5c9" x="84.8" y="163.888482" style="stroke: #000000; stroke-width: 0.6"/>
      </g>
     </g>
     <g id="text_11">
      <!-- $\mathdefault{6\times10^{21}}$ -->
      <g transform="translate(38.7 167.687701) scale(0.1 -0.1)">
       <defs>
        <path id="DejaVuSans-36" d="M 2113 2584 
Q 1688 2584 1439 2293 
Q 1191 2003 1191 1497 
Q 1191 994 1439 701 
Q 1688 409 2113 409 
Q 2538 409 2786 701 
Q 3034 994 3034 1497 
Q 3034 2003 2786 2293 
Q 2538 2584 2113 2584 
z
M 3366 4563 
L 3366 3988 
Q 3128 4100 2886 4159 
Q 2644 4219 2406 4219 
Q 1781 4219 1451 3797 
Q 1122 3375 1075 2522 
Q 1259 2794 1537 2939 
Q 1816 3084 2150 3084 
Q 2853 3084 3261 2657 
Q 3669 2231 3669 1497 
Q 3669 778 3244 343 
Q 2819 -91 2113 -91 
Q 1303 -91 875 529 
Q 447 1150 447 2328 
Q 447 3434 972 4092 
Q 1497 4750 2381 4750 
Q 2619 4750 2861 4703 
Q 3103 4656 3366 4563 
z
" transform="scale(0.015625)"/>
       </defs>
       <use xlink:href="#DejaVuSans-36" transform="translate(0 0.765625)"/>
       <use xlink:href="#DejaVuSans-d7" transform="translate(83.105469 0.765625)"/>
       <use xlink:href="#DejaVuSans-31" transform="translate(186.376953 0.765625)"/>
       <use xlink:href="#DejaVuSans-30" transform="translate(250 0.765625)"/>
       <use xlink:href="#DejaVuSans-32" transform="translate(314.580078 39.046875) scale(0.7)"/>
       <use xlink:href="#DejaVuSans-31" transform="translate(359.116211 39.046875) scale(0.7)"/>
      </g>
     </g>
    </g>
    <g id="ytick_7">
     <g id="line2d_23">
      <path d="M 84.8 123.00149 
L 442.874866 123.00149 
" clip-path="url(#pc32df7f471)" style="fill: none; stroke-dasharray: 2.96,1.28; stroke-dashoffset: 0; stroke: #b0b0b0; stroke-width: 0.8"/>
     </g>
     <g id="line2d_24">
      <g>
       <use xlink:href="#mfd52a3f5c9" x="84.8" y="123.00149" style="stroke: #000000; stroke-width: 0.6"/>
      </g>
     </g>
    </g>
    <g id="ytick_8">
     <g id="line2d_25">
      <path d="M 84.8 87.583566 
L 442.874866 87.583566 
" clip-path="url(#pc32df7f471)" style="fill: none; stroke-dasharray: 2.96,1.28; stroke-dashoffset: 0; stroke: #b0b0b0; stroke-width: 0.8"/>
     </g>
     <g id="line2d_26">
      <g>
       <use xlink:href="#mfd52a3f5c9" x="84.8" y="87.583566" style="stroke: #000000; stroke-width: 0.6"/>
      </g>
     </g>
    </g>
    <g id="ytick_9">
     <g id="line2d_27">
      <path d="M 84.8 56.342743 
L 442.874866 56.342743 
" clip-path="url(#pc32df7f471)" style="fill: none; stroke-dasharray: 2.96,1.28; stroke-dashoffset: 0; stroke: #b0b0b0; stroke-width: 0.8"/>
     </g>
     <g id="line2d_28">
      <g>
       <use xlink:href="#mfd52a3f5c9" x="84.8" y="56.342743" style="stroke: #000000; stroke-width: 0.6"/>
      </g>
     </g>
    </g>
    <g id="text_12">
     <!-- Carrier Density [cm$^{-3}$] -->
     <g transform="translate(25.4 354.340875) rotate(-90) scale(0.2 -0.2)">
      <defs>
       <path id="DejaVuSans-43" d="M 4122 4306 
L 4122 3641 
Q 3803 3938 3442 4084 
Q 3081 4231 2675 4231 
Q 1875 4231 1450 3742 
Q 1025 3253 1025 2328 
Q 1025 1406 1450 917 
Q 1875 428 2675 428 
Q 3081 428 3442 575 
Q 3803 722 4122 1019 
L 4122 359 
Q 3791 134 3420 21 
Q 3050 -91 2638 -91 
Q 1578 -91 968 557 
Q 359 1206 359 2328 
Q 359 3453 968 4101 
Q 1578 4750 2638 4750 
Q 3056 4750 3426 4639 
Q 3797 4528 4122 4306 
z
" transform="scale(0.015625)"/>
       <path id="DejaVuSans-61" d="M 2194 1759 
Q 1497 1759 1228 1600 
Q 959 1441 959 1056 
Q 959 750 1161 570 
Q 1363 391 1709 391 
Q 2188 391 2477 730 
Q 2766 1069 2766 1631 
L 2766 1759 
L 2194 1759 
z
M 3341 1997 
L 3341 0 
L 2766 0 
L 2766 531 
Q 2569 213 2275 61 
Q 1981 -91 1556 -91 
Q 1019 -91 701 211 
Q 384 513 384 1019 
Q 384 1609 779 1909 
Q 1175 2209 1959 2209 
L 2766 2209 
L 2766 2266 
Q 2766 2663 2505 2880 
Q 2244 3097 1772 3097 
Q 1472 3097 1187 3025 
Q 903 2953 641 2809 
L 641 3341 
Q 956 3463 1253 3523 
Q 1550 3584 1831 3584 
Q 2591 3584 2966 3190 
Q 3341 2797 3341 1997 
z
" transform="scale(0.015625)"/>
       <path id="DejaVuSans-72" d="M 2631 2963 
Q 2534 3019 2420 3045 
Q 2306 3072 2169 3072 
Q 1681 3072 1420 2755 
Q 1159 2438 1159 1844 
L 1159 0 
L 581 0 
L 581 3500 
L 1159 3500 
L 1159 2956 
Q 1341 3275 1631 3429 
Q 1922 3584 2338 3584 
Q 2397 3584 2469 3576 
Q 2541 3569 2628 3553 
L 2631 2963 
z
" transform="scale(0.015625)"/>
       <path id="DejaVuSans-69" d="M 603 3500 
L 1178 3500 
L 1178 0 
L 603 0 
L 603 3500 
z
M 603 4863 
L 1178 4863 
L 1178 4134 
L 603 4134 
L 603 4863 
z
" transform="scale(0.015625)"/>
       <path id="DejaVuSans-73" d="M 2834 3397 
L 2834 2853 
Q 2591 2978 2328 3040 
Q 2066 3103 1784 3103 
Q 1356 3103 1142 2972 
Q 928 2841 928 2578 
Q 928 2378 1081 2264 
Q 1234 2150 1697 2047 
L 1894 2003 
Q 2506 1872 2764 1633 
Q 3022 1394 3022 966 
Q 3022 478 2636 193 
Q 2250 -91 1575 -91 
Q 1294 -91 989 -36 
Q 684 19 347 128 
L 347 722 
Q 666 556 975 473 
Q 1284 391 1588 391 
Q 1994 391 2212 530 
Q 2431 669 2431 922 
Q 2431 1156 2273 1281 
Q 2116 1406 1581 1522 
L 1381 1569 
Q 847 1681 609 1914 
Q 372 2147 372 2553 
Q 372 3047 722 3315 
Q 1072 3584 1716 3584 
Q 2034 3584 2315 3537 
Q 2597 3491 2834 3397 
z
" transform="scale(0.015625)"/>
       <path id="DejaVuSans-79" d="M 2059 -325 
Q 1816 -950 1584 -1140 
Q 1353 -1331 966 -1331 
L 506 -1331 
L 506 -850 
L 844 -850 
Q 1081 -850 1212 -737 
Q 1344 -625 1503 -206 
L 1606 56 
L 191 3500 
L 800 3500 
L 1894 763 
L 2988 3500 
L 3597 3500 
L 2059 -325 
z
" transform="scale(0.015625)"/>
       <path id="DejaVuSans-63" d="M 3122 3366 
L 3122 2828 
Q 2878 2963 2633 3030 
Q 2388 3097 2138 3097 
Q 1578 3097 1268 2742 
Q 959 2388 959 1747 
Q 959 1106 1268 751 
Q 1578 397 2138 397 
Q 2388 397 2633 464 
Q 2878 531 3122 666 
L 3122 134 
Q 2881 22 2623 -34 
Q 2366 -91 2075 -91 
Q 1284 -91 818 406 
Q 353 903 353 1747 
Q 353 2603 823 3093 
Q 1294 3584 2113 3584 
Q 2378 3584 2631 3529 
Q 2884 3475 3122 3366 
z
" transform="scale(0.015625)"/>
       <path id="DejaVuSans-2212" d="M 678 2272 
L 4684 2272 
L 4684 1741 
L 678 1741 
L 678 2272 
z
" transform="scale(0.015625)"/>
      </defs>
      <use xlink:href="#DejaVuSans-43" transform="translate(0 0.765625)"/>
      <use xlink:href="#DejaVuSans-61" transform="translate(69.824219 0.765625)"/>
      <use xlink:href="#DejaVuSans-72" transform="translate(131.103516 0.765625)"/>
      <use xlink:href="#DejaVuSans-72" transform="translate(172.216797 0.765625)"/>
      <use xlink:href="#DejaVuSans-69" transform="translate(213.330078 0.765625)"/>
      <use xlink:href="#DejaVuSans-65" transform="translate(241.113281 0.765625)"/>
      <use xlink:href="#DejaVuSans-72" transform="translate(302.636719 0.765625)"/>
      <use xlink:href="#DejaVuSans-20" transform="translate(343.75 0.765625)"/>
      <use xlink:href="#DejaVuSans-44" transform="translate(375.537109 0.765625)"/>
      <use xlink:href="#DejaVuSans-65" transform="translate(452.539062 0.765625)"/>
      <use xlink:href="#DejaVuSans-6e" transform="translate(514.0625 0.765625)"/>
      <use xlink:href="#DejaVuSans-73" transform="translate(577.441406 0.765625)"/>
      <use xlink:href="#DejaVuSans-69" transform="translate(629.541016 0.765625)"/>
      <use xlink:href="#DejaVuSans-74" transform="translate(657.324219 0.765625)"/>
      <use xlink:href="#DejaVuSans-79" transform="translate(696.533203 0.765625)"/>
      <use xlink:href="#DejaVuSans-20" transform="translate(755.712891 0.765625)"/>
      <use xlink:href="#DejaVuSans-5b" transform="translate(787.5 0.765625)"/>
      <use xlink:href="#DejaVuSans-63" transform="translate(826.513672 0.765625)"/>
      <use xlink:href="#DejaVuSans-6d" transform="translate(881.494141 0.765625)"/>
      <use xlink:href="#DejaVuSans-2212" transform="translate(979.863281 39.046875) scale(0.7)"/>
      <use xlink:href="#DejaVuSans-33" transform="translate(1038.515625 39.046875) scale(0.7)"/>
      <use xlink:href="#DejaVuSans-5d" transform="translate(1085.786133 0.765625)"/>
     </g>
    </g>
   </g>
   <g id="line2d_29">
    <path d="M 101.07613 158.049869 
L 118.208899 158.442169 
L 135.341668 159.140812 
L 152.474436 160.07352 
L 169.607205 161.179139 
L 186.739974 162.405659 
L 203.872743 163.708648 
L 221.005511 165.050004 
L 238.13828 166.396948 
L 255.271049 167.721209 
L 272.403818 168.998348 
L 289.536586 170.2072 
L 306.669355 171.32941 
L 323.802124 172.349041 
L 340.934892 173.252245 
L 358.067661 174.02698 
L 375.20043 174.662772 
L 392.333199 175.150508 
L 409.465967 175.482261 
L 426.598736 175.651134 
" clip-path="url(#pc32df7f471)" style="fill: none; stroke: #465970; stroke-width: 1.5; stroke-linecap: square"/>
   </g>
   <g id="line2d_30">
    <path d="M 101.07613 94.57372 
L 118.208899 95.50107 
L 135.341668 97.157231 
L 152.474436 99.377626 
L 169.607205 102.023721 
L 186.739974 104.977305 
L 203.872743 108.136296 
L 221.005511 111.411618 
L 238.13828 114.724858 
L 255.271049 118.006484 
L 272.403818 121.194501 
L 289.536586 124.233416 
L 306.669355 127.073455 
L 323.802124 129.669971 
L 340.934892 131.982991 
L 358.067661 133.976872 
L 375.20043 135.620048 
L 392.333199 136.884827 
L 409.465967 137.74724 
L 426.598736 138.186902 
" clip-path="url(#pc32df7f471)" style="fill: none; stroke-dasharray: 5.55,2.4; stroke-dashoffset: 0; stroke: #465970; stroke-width: 1.5"/>
   </g>
   <g id="line2d_31">
    <path d="M 101.07613 317.61434 
L 118.208899 318.311953 
L 135.341668 319.552949 
L 152.474436 321.2093 
L 169.607205 323.173566 
L 186.739974 325.354734 
L 203.872743 327.675086 
L 221.005511 330.0678 
L 238.13828 332.475082 
L 255.271049 334.84671 
L 272.403818 337.138862 
L 289.536586 339.313185 
L 306.669355 341.336034 
L 323.802124 343.177848 
L 340.934892 344.812633 
L 358.067661 346.217535 
L 375.20043 347.372475 
L 392.333199 348.259847 
L 409.465967 348.86425 
L 426.598736 349.172267 
" clip-path="url(#pc32df7f471)" style="fill: none; stroke: #c71d06; stroke-width: 1.5; stroke-linecap: square"/>
   </g>
   <g id="line2d_32">
    <path d="M 101.07613 206.303406 
L 118.208899 207.680729 
L 135.341668 210.13965 
L 152.474436 213.439302 
L 169.607205 217.379135 
L 186.739974 221.788821 
L 203.872743 226.521108 
L 221.005511 231.446668 
L 238.13828 236.450366 
L 255.271049 241.42854 
L 272.403818 246.287041 
L 289.536586 250.939831 
L 306.669355 255.308032 
L 323.802124 259.319299 
L 340.934892 262.907465 
L 358.067661 266.012378 
L 375.20043 268.579887 
L 392.333199 270.561922 
L 409.465967 271.916622 
L 426.598736 272.608484 
" clip-path="url(#pc32df7f471)" style="fill: none; stroke-dasharray: 5.55,2.4; stroke-dashoffset: 0; stroke: #c71d06; stroke-width: 1.5"/>
   </g>
   <g id="patch_3">
    <path d="M 84.8 455.284875 
L 84.8 28.396875 
" style="fill: none; stroke: #000000; stroke-width: 2; stroke-linejoin: miter; stroke-linecap: square"/>
   </g>
   <g id="patch_4">
    <path d="M 442.874866 455.284875 
L 442.874866 28.396875 
" style="fill: none; stroke: #000000; stroke-width: 2; stroke-linejoin: miter; stroke-linecap: square"/>
   </g>
   <g id="patch_5">
    <path d="M 84.8 455.284875 
L 442.874866 455.284875 
" style="fill: none; stroke: #000000; stroke-width: 2; stroke-linejoin: miter; stroke-linecap: square"/>
   </g>
   <g id="patch_6">
    <path d="M 84.8 28.396875 
L 442.874866 28.396875 
" style="fill: none; stroke: #000000; stroke-width: 2; stroke-linejoin: miter; stroke-linecap: square"/>
   </g>
   <g id="text_13">
    <!-- CsFAPI Steady State Concentrations -->
    <g transform="translate(84.212433 22.396875) scale(0.2 -0.2)">
     <defs>
      <path id="DejaVuSans-46" d="M 628 4666 
L 3309 4666 
L 3309 4134 
L 1259 4134 
L 1259 2759 
L 3109 2759 
L 3109 2228 
L 1259 2228 
L 1259 0 
L 628 0 
L 628 4666 
z
" transform="scale(0.015625)"/>
      <path id="DejaVuSans-41" d="M 2188 4044 
L 1331 1722 
L 3047 1722 
L 2188 4044 
z
M 1831 4666 
L 2547 4666 
L 4325 0 
L 3669 0 
L 3244 1197 
L 1141 1197 
L 716 0 
L 50 0 
L 1831 4666 
z
" transform="scale(0.015625)"/>
      <path id="DejaVuSans-50" d="M 1259 4147 
L 1259 2394 
L 2053 2394 
Q 2494 2394 2734 2622 
Q 2975 2850 2975 3272 
Q 2975 3691 2734 3919 
Q 2494 4147 2053 4147 
L 1259 4147 
z
M 628 4666 
L 2053 4666 
Q 2838 4666 3239 4311 
Q 3641 3956 3641 3272 
Q 3641 2581 3239 2228 
Q 2838 1875 2053 1875 
L 1259 1875 
L 1259 0 
L 628 0 
L 628 4666 
z
" transform="scale(0.015625)"/>
      <path id="DejaVuSans-49" d="M 628 4666 
L 1259 4666 
L 1259 0 
L 628 0 
L 628 4666 
z
" transform="scale(0.015625)"/>
      <path id="DejaVuSans-53" d="M 3425 4513 
L 3425 3897 
Q 3066 4069 2747 4153 
Q 2428 4238 2131 4238 
Q 1616 4238 1336 4038 
Q 1056 3838 1056 3469 
Q 1056 3159 1242 3001 
Q 1428 2844 1947 2747 
L 2328 2669 
Q 3034 2534 3370 2195 
Q 3706 1856 3706 1288 
Q 3706 609 3251 259 
Q 2797 -91 1919 -91 
Q 1588 -91 1214 -16 
Q 841 59 441 206 
L 441 856 
Q 825 641 1194 531 
Q 1563 422 1919 422 
Q 2459 422 2753 634 
Q 3047 847 3047 1241 
Q 3047 1584 2836 1778 
Q 2625 1972 2144 2069 
L 1759 2144 
Q 1053 2284 737 2584 
Q 422 2884 422 3419 
Q 422 4038 858 4394 
Q 1294 4750 2059 4750 
Q 2388 4750 2728 4690 
Q 3069 4631 3425 4513 
z
" transform="scale(0.015625)"/>
      <path id="DejaVuSans-64" d="M 2906 2969 
L 2906 4863 
L 3481 4863 
L 3481 0 
L 2906 0 
L 2906 525 
Q 2725 213 2448 61 
Q 2172 -91 1784 -91 
Q 1150 -91 751 415 
Q 353 922 353 1747 
Q 353 2572 751 3078 
Q 1150 3584 1784 3584 
Q 2172 3584 2448 3432 
Q 2725 3281 2906 2969 
z
M 947 1747 
Q 947 1113 1208 752 
Q 1469 391 1925 391 
Q 2381 391 2643 752 
Q 2906 1113 2906 1747 
Q 2906 2381 2643 2742 
Q 2381 3103 1925 3103 
Q 1469 3103 1208 2742 
Q 947 2381 947 1747 
z
" transform="scale(0.015625)"/>
      <path id="DejaVuSans-6f" d="M 1959 3097 
Q 1497 3097 1228 2736 
Q 959 2375 959 1747 
Q 959 1119 1226 758 
Q 1494 397 1959 397 
Q 2419 397 2687 759 
Q 2956 1122 2956 1747 
Q 2956 2369 2687 2733 
Q 2419 3097 1959 3097 
z
M 1959 3584 
Q 2709 3584 3137 3096 
Q 3566 2609 3566 1747 
Q 3566 888 3137 398 
Q 2709 -91 1959 -91 
Q 1206 -91 779 398 
Q 353 888 353 1747 
Q 353 2609 779 3096 
Q 1206 3584 1959 3584 
z
" transform="scale(0.015625)"/>
     </defs>
     <use xlink:href="#DejaVuSans-43"/>
     <use xlink:href="#DejaVuSans-73" transform="translate(69.824219 0)"/>
     <use xlink:href="#DejaVuSans-46" transform="translate(121.923828 0)"/>
     <use xlink:href="#DejaVuSans-41" transform="translate(170.318359 0)"/>
     <use xlink:href="#DejaVuSans-50" transform="translate(238.726562 0)"/>
     <use xlink:href="#DejaVuSans-49" transform="translate(299.029297 0)"/>
     <use xlink:href="#DejaVuSans-20" transform="translate(328.521484 0)"/>
     <use xlink:href="#DejaVuSans-53" transform="translate(360.308594 0)"/>
     <use xlink:href="#DejaVuSans-74" transform="translate(423.785156 0)"/>
     <use xlink:href="#DejaVuSans-65" transform="translate(462.994141 0)"/>
     <use xlink:href="#DejaVuSans-61" transform="translate(524.517578 0)"/>
     <use xlink:href="#DejaVuSans-64" transform="translate(585.796875 0)"/>
     <use xlink:href="#DejaVuSans-79" transform="translate(649.273438 0)"/>
     <use xlink:href="#DejaVuSans-20" transform="translate(708.453125 0)"/>
     <use xlink:href="#DejaVuSans-53" transform="translate(740.240234 0)"/>
     <use xlink:href="#DejaVuSans-74" transform="translate(803.716797 0)"/>
     <use xlink:href="#DejaVuSans-61" transform="translate(842.925781 0)"/>
     <use xlink:href="#DejaVuSans-74" transform="translate(904.205078 0)"/>
     <use xlink:href="#DejaVuSans-65" transform="translate(943.414062 0)"/>
     <use xlink:href="#DejaVuSans-20" transform="translate(1004.9375 0)"/>
     <use xlink:href="#DejaVuSans-43" transform="translate(1036.724609 0)"/>
     <use xlink:href="#DejaVuSans-6f" transform="translate(1106.548828 0)"/>
     <use xlink:href="#DejaVuSans-6e" transform="translate(1167.730469 0)"/>
     <use xlink:href="#DejaVuSans-63" transform="translate(1231.109375 0)"/>
     <use xlink:href="#DejaVuSans-65" transform="translate(1286.089844 0)"/>
     <use xlink:href="#DejaVuSans-6e" transform="translate(1347.613281 0)"/>
     <use xlink:href="#DejaVuSans-74" transform="translate(1410.992188 0)"/>
     <use xlink:href="#DejaVuSans-72" transform="translate(1450.201172 0)"/>
     <use xlink:href="#DejaVuSans-61" transform="translate(1491.314453 0)"/>
     <use xlink:href="#DejaVuSans-74" transform="translate(1552.59375 0)"/>
     <use xlink:href="#DejaVuSans-69" transform="translate(1591.802734 0)"/>
     <use xlink:href="#DejaVuSans-6f" transform="translate(1619.585938 0)"/>
     <use xlink:href="#DejaVuSans-6e" transform="translate(1680.767578 0)"/>
     <use xlink:href="#DejaVuSans-73" transform="translate(1744.146484 0)"/>
    </g>
   </g>
   <g id="legend_1">
    <g id="patch_7">
     <path d="M 315.044398 84.43125 
L 432.374866 84.43125 
Q 435.374866 84.43125 435.374866 81.43125 
L 435.374866 38.896875 
Q 435.374866 35.896875 432.374866 35.896875 
L 315.044398 35.896875 
Q 312.044398 35.896875 312.044398 38.896875 
L 312.044398 81.43125 
Q 312.044398 84.43125 315.044398 84.43125 
z
" style="fill: #ffffff; opacity: 0.8; stroke: #cccccc; stroke-linejoin: miter"/>
    </g>
    <g id="line2d_33">
     <path d="M 318.044398 48.044531 
L 333.044398 48.044531 
L 348.044398 48.044531 
" style="fill: none; stroke: #465970; stroke-width: 1.5; stroke-linecap: square"/>
    </g>
    <g id="text_14">
     <!-- Electrons -->
     <g transform="translate(360.044398 53.294531) scale(0.15 -0.15)">
      <defs>
       <path id="DejaVuSans-45" d="M 628 4666 
L 3578 4666 
L 3578 4134 
L 1259 4134 
L 1259 2753 
L 3481 2753 
L 3481 2222 
L 1259 2222 
L 1259 531 
L 3634 531 
L 3634 0 
L 628 0 
L 628 4666 
z
" transform="scale(0.015625)"/>
       <path id="DejaVuSans-6c" d="M 603 4863 
L 1178 4863 
L 1178 0 
L 603 0 
L 603 4863 
z
" transform="scale(0.015625)"/>
      </defs>
      <use xlink:href="#DejaVuSans-45"/>
      <use xlink:href="#DejaVuSans-6c" transform="translate(63.183594 0)"/>
      <use xlink:href="#DejaVuSans-65" transform="translate(90.966797 0)"/>
      <use xlink:href="#DejaVuSans-63" transform="translate(152.490234 0)"/>
      <use xlink:href="#DejaVuSans-74" transform="translate(207.470703 0)"/>
      <use xlink:href="#DejaVuSans-72" transform="translate(246.679688 0)"/>
      <use xlink:href="#DejaVuSans-6f" transform="translate(285.542969 0)"/>
      <use xlink:href="#DejaVuSans-6e" transform="translate(346.724609 0)"/>
      <use xlink:href="#DejaVuSans-73" transform="translate(410.103516 0)"/>
     </g>
    </g>
    <g id="line2d_34">
     <path d="M 318.044398 70.061719 
L 333.044398 70.061719 
L 348.044398 70.061719 
" style="fill: none; stroke-dasharray: 5.55,2.4; stroke-dashoffset: 0; stroke: #465970; stroke-width: 1.5"/>
    </g>
    <g id="text_15">
     <!-- Holes -->
     <g transform="translate(360.044398 75.311719) scale(0.15 -0.15)">
      <defs>
       <path id="DejaVuSans-48" d="M 628 4666 
L 1259 4666 
L 1259 2753 
L 3553 2753 
L 3553 4666 
L 4184 4666 
L 4184 0 
L 3553 0 
L 3553 2222 
L 1259 2222 
L 1259 0 
L 628 0 
L 628 4666 
z
" transform="scale(0.015625)"/>
      </defs>
      <use xlink:href="#DejaVuSans-48"/>
      <use xlink:href="#DejaVuSans-6f" transform="translate(75.195312 0)"/>
      <use xlink:href="#DejaVuSans-6c" transform="translate(136.376953 0)"/>
      <use xlink:href="#DejaVuSans-65" transform="translate(164.160156 0)"/>
      <use xlink:href="#DejaVuSans-73" transform="translate(225.683594 0)"/>
     </g>
    </g>
   </g>
  </g>
  <g id="axes_2">
   <g id="patch_8">
    <path d="M 508.521925 455.284875 
L 866.596791 455.284875 
L 866.596791 28.396875 
L 508.521925 28.396875 
z
" style="fill: #ffffff"/>
   </g>
   <g id="matplotlib.axis_3">
    <g id="xtick_6">
     <g id="line2d_35">
      <path d="M 524.798055 455.284875 
L 524.798055 28.396875 
" clip-path="url(#p854cb026f0)" style="fill: none; stroke-dasharray: 2.96,1.28; stroke-dashoffset: 0; stroke: #b0b0b0; stroke-width: 0.8"/>
     </g>
     <g id="line2d_36">
      <g>
       <use xlink:href="#me59e7e543c" x="524.798055" y="455.284875" style="stroke: #000000; stroke-width: 0.8"/>
      </g>
     </g>
     <g id="text_16">
      <!-- 0 -->
      <g transform="translate(518.435555 477.48175) scale(0.2 -0.2)">
       <use xlink:href="#DejaVuSans-30"/>
      </g>
     </g>
    </g>
    <g id="xtick_7">
     <g id="line2d_37">
      <path d="M 600.943694 455.284875 
L 600.943694 28.396875 
" clip-path="url(#p854cb026f0)" style="fill: none; stroke-dasharray: 2.96,1.28; stroke-dashoffset: 0; stroke: #b0b0b0; stroke-width: 0.8"/>
     </g>
     <g id="line2d_38">
      <g>
       <use xlink:href="#me59e7e543c" x="600.943694" y="455.284875" style="stroke: #000000; stroke-width: 0.8"/>
      </g>
     </g>
     <g id="text_17">
      <!-- 100 -->
      <g transform="translate(581.856194 477.48175) scale(0.2 -0.2)">
       <use xlink:href="#DejaVuSans-31"/>
       <use xlink:href="#DejaVuSans-30" transform="translate(63.623047 0)"/>
       <use xlink:href="#DejaVuSans-30" transform="translate(127.246094 0)"/>
      </g>
     </g>
    </g>
    <g id="xtick_8">
     <g id="line2d_39">
      <path d="M 677.089333 455.284875 
L 677.089333 28.396875 
" clip-path="url(#p854cb026f0)" style="fill: none; stroke-dasharray: 2.96,1.28; stroke-dashoffset: 0; stroke: #b0b0b0; stroke-width: 0.8"/>
     </g>
     <g id="line2d_40">
      <g>
       <use xlink:href="#me59e7e543c" x="677.089333" y="455.284875" style="stroke: #000000; stroke-width: 0.8"/>
      </g>
     </g>
     <g id="text_18">
      <!-- 200 -->
      <g transform="translate(658.001833 477.48175) scale(0.2 -0.2)">
       <use xlink:href="#DejaVuSans-32"/>
       <use xlink:href="#DejaVuSans-30" transform="translate(63.623047 0)"/>
       <use xlink:href="#DejaVuSans-30" transform="translate(127.246094 0)"/>
      </g>
     </g>
    </g>
    <g id="xtick_9">
     <g id="line2d_41">
      <path d="M 753.234972 455.284875 
L 753.234972 28.396875 
" clip-path="url(#p854cb026f0)" style="fill: none; stroke-dasharray: 2.96,1.28; stroke-dashoffset: 0; stroke: #b0b0b0; stroke-width: 0.8"/>
     </g>
     <g id="line2d_42">
      <g>
       <use xlink:href="#me59e7e543c" x="753.234972" y="455.284875" style="stroke: #000000; stroke-width: 0.8"/>
      </g>
     </g>
     <g id="text_19">
      <!-- 300 -->
      <g transform="translate(734.147472 477.48175) scale(0.2 -0.2)">
       <use xlink:href="#DejaVuSans-33"/>
       <use xlink:href="#DejaVuSans-30" transform="translate(63.623047 0)"/>
       <use xlink:href="#DejaVuSans-30" transform="translate(127.246094 0)"/>
      </g>
     </g>
    </g>
    <g id="xtick_10">
     <g id="line2d_43">
      <path d="M 829.38061 455.284875 
L 829.38061 28.396875 
" clip-path="url(#p854cb026f0)" style="fill: none; stroke-dasharray: 2.96,1.28; stroke-dashoffset: 0; stroke: #b0b0b0; stroke-width: 0.8"/>
     </g>
     <g id="line2d_44">
      <g>
       <use xlink:href="#me59e7e543c" x="829.38061" y="455.284875" style="stroke: #000000; stroke-width: 0.8"/>
      </g>
     </g>
     <g id="text_20">
      <!-- 400 -->
      <g transform="translate(810.29311 477.48175) scale(0.2 -0.2)">
       <use xlink:href="#DejaVuSans-34"/>
       <use xlink:href="#DejaVuSans-30" transform="translate(63.623047 0)"/>
       <use xlink:href="#DejaVuSans-30" transform="translate(127.246094 0)"/>
      </g>
     </g>
    </g>
    <g id="text_21">
     <!-- Depth z [nm] -->
     <g transform="translate(621.614046 500.838) scale(0.2 -0.2)">
      <use xlink:href="#DejaVuSans-44"/>
      <use xlink:href="#DejaVuSans-65" transform="translate(77.001953 0)"/>
      <use xlink:href="#DejaVuSans-70" transform="translate(138.525391 0)"/>
      <use xlink:href="#DejaVuSans-74" transform="translate(202.001953 0)"/>
      <use xlink:href="#DejaVuSans-68" transform="translate(241.210938 0)"/>
      <use xlink:href="#DejaVuSans-20" transform="translate(304.589844 0)"/>
      <use xlink:href="#DejaVuSans-7a" transform="translate(336.376953 0)"/>
      <use xlink:href="#DejaVuSans-20" transform="translate(388.867188 0)"/>
      <use xlink:href="#DejaVuSans-5b" transform="translate(420.654297 0)"/>
      <use xlink:href="#DejaVuSans-6e" transform="translate(459.667969 0)"/>
      <use xlink:href="#DejaVuSans-6d" transform="translate(523.046875 0)"/>
      <use xlink:href="#DejaVuSans-5d" transform="translate(620.458984 0)"/>
     </g>
    </g>
   </g>
   <g id="matplotlib.axis_4">
    <g id="ytick_10">
     <g id="line2d_45">
      <path d="M 508.521925 455.284875 
L 866.596791 455.284875 
" clip-path="url(#p854cb026f0)" style="fill: none; stroke-dasharray: 2.96,1.28; stroke-dashoffset: 0; stroke: #b0b0b0; stroke-width: 0.8"/>
     </g>
     <g id="line2d_46">
      <g>
       <use xlink:href="#ma7fc75725d" x="508.521925" y="455.284875" style="stroke: #000000; stroke-width: 0.8"/>
      </g>
     </g>
     <g id="text_22">
      <!-- $\mathdefault{10^{20}}$ -->
      <g transform="translate(457.321925 462.883312) scale(0.2 -0.2)">
       <use xlink:href="#DejaVuSans-31" transform="translate(0 0.765625)"/>
       <use xlink:href="#DejaVuSans-30" transform="translate(63.623047 0.765625)"/>
       <use xlink:href="#DejaVuSans-32" transform="translate(128.203125 39.046875) scale(0.7)"/>
       <use xlink:href="#DejaVuSans-30" transform="translate(172.739258 39.046875) scale(0.7)"/>
      </g>
     </g>
    </g>
    <g id="ytick_11">
     <g id="line2d_47">
      <path d="M 508.521925 241.840875 
L 866.596791 241.840875 
" clip-path="url(#p854cb026f0)" style="fill: none; stroke-dasharray: 2.96,1.28; stroke-dashoffset: 0; stroke: #b0b0b0; stroke-width: 0.8"/>
     </g>
     <g id="line2d_48">
      <g>
       <use xlink:href="#ma7fc75725d" x="508.521925" y="241.840875" style="stroke: #000000; stroke-width: 0.8"/>
      </g>
     </g>
     <g id="text_23">
      <!-- $\mathdefault{10^{21}}$ -->
      <g transform="translate(457.321925 249.439313) scale(0.2 -0.2)">
       <use xlink:href="#DejaVuSans-31" transform="translate(0 0.765625)"/>
       <use xlink:href="#DejaVuSans-30" transform="translate(63.623047 0.765625)"/>
       <use xlink:href="#DejaVuSans-32" transform="translate(128.203125 39.046875) scale(0.7)"/>
       <use xlink:href="#DejaVuSans-31" transform="translate(172.739258 39.046875) scale(0.7)"/>
      </g>
     </g>
    </g>
    <g id="ytick_12">
     <g id="line2d_49">
      <path d="M 508.521925 28.396875 
L 866.596791 28.396875 
" clip-path="url(#p854cb026f0)" style="fill: none; stroke-dasharray: 2.96,1.28; stroke-dashoffset: 0; stroke: #b0b0b0; stroke-width: 0.8"/>
     </g>
     <g id="line2d_50">
      <g>
       <use xlink:href="#ma7fc75725d" x="508.521925" y="28.396875" style="stroke: #000000; stroke-width: 0.8"/>
      </g>
     </g>
     <g id="text_24">
      <!-- $\mathdefault{10^{22}}$ -->
      <g transform="translate(457.321925 35.995312) scale(0.2 -0.2)">
       <use xlink:href="#DejaVuSans-31" transform="translate(0 0.765625)"/>
       <use xlink:href="#DejaVuSans-30" transform="translate(63.623047 0.765625)"/>
       <use xlink:href="#DejaVuSans-32" transform="translate(128.203125 39.046875) scale(0.7)"/>
       <use xlink:href="#DejaVuSans-32" transform="translate(172.739258 39.046875) scale(0.7)"/>
      </g>
     </g>
    </g>
    <g id="ytick_13">
     <g id="line2d_51">
      <path d="M 508.521925 391.031829 
L 866.596791 391.031829 
" clip-path="url(#p854cb026f0)" style="fill: none; stroke-dasharray: 2.96,1.28; stroke-dashoffset: 0; stroke: #b0b0b0; stroke-width: 0.8"/>
     </g>
     <g id="line2d_52">
      <g>
       <use xlink:href="#mfd52a3f5c9" x="508.521925" y="391.031829" style="stroke: #000000; stroke-width: 0.6"/>
      </g>
     </g>
    </g>
    <g id="ytick_14">
     <g id="line2d_53">
      <path d="M 508.521925 353.446206 
L 866.596791 353.446206 
" clip-path="url(#p854cb026f0)" style="fill: none; stroke-dasharray: 2.96,1.28; stroke-dashoffset: 0; stroke: #b0b0b0; stroke-width: 0.8"/>
     </g>
     <g id="line2d_54">
      <g>
       <use xlink:href="#mfd52a3f5c9" x="508.521925" y="353.446206" style="stroke: #000000; stroke-width: 0.6"/>
      </g>
     </g>
    </g>
    <g id="ytick_15">
     <g id="line2d_55">
      <path d="M 508.521925 326.778782 
L 866.596791 326.778782 
" clip-path="url(#p854cb026f0)" style="fill: none; stroke-dasharray: 2.96,1.28; stroke-dashoffset: 0; stroke: #b0b0b0; stroke-width: 0.8"/>
     </g>
     <g id="line2d_56">
      <g>
       <use xlink:href="#mfd52a3f5c9" x="508.521925" y="326.778782" style="stroke: #000000; stroke-width: 0.6"/>
      </g>
     </g>
    </g>
    <g id="ytick_16">
     <g id="line2d_57">
      <path d="M 508.521925 306.093921 
L 866.596791 306.093921 
" clip-path="url(#p854cb026f0)" style="fill: none; stroke-dasharray: 2.96,1.28; stroke-dashoffset: 0; stroke: #b0b0b0; stroke-width: 0.8"/>
     </g>
     <g id="line2d_58">
      <g>
       <use xlink:href="#mfd52a3f5c9" x="508.521925" y="306.093921" style="stroke: #000000; stroke-width: 0.6"/>
      </g>
     </g>
    </g>
    <g id="ytick_17">
     <g id="line2d_59">
      <path d="M 508.521925 289.19316 
L 866.596791 289.19316 
" clip-path="url(#p854cb026f0)" style="fill: none; stroke-dasharray: 2.96,1.28; stroke-dashoffset: 0; stroke: #b0b0b0; stroke-width: 0.8"/>
     </g>
     <g id="line2d_60">
      <g>
       <use xlink:href="#mfd52a3f5c9" x="508.521925" y="289.19316" style="stroke: #000000; stroke-width: 0.6"/>
      </g>
     </g>
    </g>
    <g id="ytick_18">
     <g id="line2d_61">
      <path d="M 508.521925 274.903769 
L 866.596791 274.903769 
" clip-path="url(#p854cb026f0)" style="fill: none; stroke-dasharray: 2.96,1.28; stroke-dashoffset: 0; stroke: #b0b0b0; stroke-width: 0.8"/>
     </g>
     <g id="line2d_62">
      <g>
       <use xlink:href="#mfd52a3f5c9" x="508.521925" y="274.903769" style="stroke: #000000; stroke-width: 0.6"/>
      </g>
     </g>
    </g>
    <g id="ytick_19">
     <g id="line2d_63">
      <path d="M 508.521925 262.525736 
L 866.596791 262.525736 
" clip-path="url(#p854cb026f0)" style="fill: none; stroke-dasharray: 2.96,1.28; stroke-dashoffset: 0; stroke: #b0b0b0; stroke-width: 0.8"/>
     </g>
     <g id="line2d_64">
      <g>
       <use xlink:href="#mfd52a3f5c9" x="508.521925" y="262.525736" style="stroke: #000000; stroke-width: 0.6"/>
      </g>
     </g>
    </g>
    <g id="ytick_20">
     <g id="line2d_65">
      <path d="M 508.521925 251.607537 
L 866.596791 251.607537 
" clip-path="url(#p854cb026f0)" style="fill: none; stroke-dasharray: 2.96,1.28; stroke-dashoffset: 0; stroke: #b0b0b0; stroke-width: 0.8"/>
     </g>
     <g id="line2d_66">
      <g>
       <use xlink:href="#mfd52a3f5c9" x="508.521925" y="251.607537" style="stroke: #000000; stroke-width: 0.6"/>
      </g>
     </g>
    </g>
    <g id="ytick_21">
     <g id="line2d_67">
      <path d="M 508.521925 177.587829 
L 866.596791 177.587829 
" clip-path="url(#p854cb026f0)" style="fill: none; stroke-dasharray: 2.96,1.28; stroke-dashoffset: 0; stroke: #b0b0b0; stroke-width: 0.8"/>
     </g>
     <g id="line2d_68">
      <g>
       <use xlink:href="#mfd52a3f5c9" x="508.521925" y="177.587829" style="stroke: #000000; stroke-width: 0.6"/>
      </g>
     </g>
    </g>
    <g id="ytick_22">
     <g id="line2d_69">
      <path d="M 508.521925 140.002206 
L 866.596791 140.002206 
" clip-path="url(#p854cb026f0)" style="fill: none; stroke-dasharray: 2.96,1.28; stroke-dashoffset: 0; stroke: #b0b0b0; stroke-width: 0.8"/>
     </g>
     <g id="line2d_70">
      <g>
       <use xlink:href="#mfd52a3f5c9" x="508.521925" y="140.002206" style="stroke: #000000; stroke-width: 0.6"/>
      </g>
     </g>
    </g>
    <g id="ytick_23">
     <g id="line2d_71">
      <path d="M 508.521925 113.334782 
L 866.596791 113.334782 
" clip-path="url(#p854cb026f0)" style="fill: none; stroke-dasharray: 2.96,1.28; stroke-dashoffset: 0; stroke: #b0b0b0; stroke-width: 0.8"/>
     </g>
     <g id="line2d_72">
      <g>
       <use xlink:href="#mfd52a3f5c9" x="508.521925" y="113.334782" style="stroke: #000000; stroke-width: 0.6"/>
      </g>
     </g>
    </g>
    <g id="ytick_24">
     <g id="line2d_73">
      <path d="M 508.521925 92.649921 
L 866.596791 92.649921 
" clip-path="url(#p854cb026f0)" style="fill: none; stroke-dasharray: 2.96,1.28; stroke-dashoffset: 0; stroke: #b0b0b0; stroke-width: 0.8"/>
     </g>
     <g id="line2d_74">
      <g>
       <use xlink:href="#mfd52a3f5c9" x="508.521925" y="92.649921" style="stroke: #000000; stroke-width: 0.6"/>
      </g>
     </g>
    </g>
    <g id="ytick_25">
     <g id="line2d_75">
      <path d="M 508.521925 75.74916 
L 866.596791 75.74916 
" clip-path="url(#p854cb026f0)" style="fill: none; stroke-dasharray: 2.96,1.28; stroke-dashoffset: 0; stroke: #b0b0b0; stroke-width: 0.8"/>
     </g>
     <g id="line2d_76">
      <g>
       <use xlink:href="#mfd52a3f5c9" x="508.521925" y="75.74916" style="stroke: #000000; stroke-width: 0.6"/>
      </g>
     </g>
    </g>
    <g id="ytick_26">
     <g id="line2d_77">
      <path d="M 508.521925 61.459769 
L 866.596791 61.459769 
" clip-path="url(#p854cb026f0)" style="fill: none; stroke-dasharray: 2.96,1.28; stroke-dashoffset: 0; stroke: #b0b0b0; stroke-width: 0.8"/>
     </g>
     <g id="line2d_78">
      <g>
       <use xlink:href="#mfd52a3f5c9" x="508.521925" y="61.459769" style="stroke: #000000; stroke-width: 0.6"/>
      </g>
     </g>
    </g>
    <g id="ytick_27">
     <g id="line2d_79">
      <path d="M 508.521925 49.081736 
L 866.596791 49.081736 
" clip-path="url(#p854cb026f0)" style="fill: none; stroke-dasharray: 2.96,1.28; stroke-dashoffset: 0; stroke: #b0b0b0; stroke-width: 0.8"/>
     </g>
     <g id="line2d_80">
      <g>
       <use xlink:href="#mfd52a3f5c9" x="508.521925" y="49.081736" style="stroke: #000000; stroke-width: 0.6"/>
      </g>
     </g>
    </g>
    <g id="ytick_28">
     <g id="line2d_81">
      <path d="M 508.521925 38.163537 
L 866.596791 38.163537 
" clip-path="url(#p854cb026f0)" style="fill: none; stroke-dasharray: 2.96,1.28; stroke-dashoffset: 0; stroke: #b0b0b0; stroke-width: 0.8"/>
     </g>
     <g id="line2d_82">
      <g>
       <use xlink:href="#mfd52a3f5c9" x="508.521925" y="38.163537" style="stroke: #000000; stroke-width: 0.6"/>
      </g>
     </g>
    </g>
    <g id="text_25">
     <!-- Carrier Density [cm$^{-3}$] -->
     <g transform="translate(449.121925 354.340875) rotate(-90) scale(0.2 -0.2)">
      <use xlink:href="#DejaVuSans-43" transform="translate(0 0.765625)"/>
      <use xlink:href="#DejaVuSans-61" transform="translate(69.824219 0.765625)"/>
      <use xlink:href="#DejaVuSans-72" transform="translate(131.103516 0.765625)"/>
      <use xlink:href="#DejaVuSans-72" transform="translate(172.216797 0.765625)"/>
      <use xlink:href="#DejaVuSans-69" transform="translate(213.330078 0.765625)"/>
      <use xlink:href="#DejaVuSans-65" transform="translate(241.113281 0.765625)"/>
      <use xlink:href="#DejaVuSans-72" transform="translate(302.636719 0.765625)"/>
      <use xlink:href="#DejaVuSans-20" transform="translate(343.75 0.765625)"/>
      <use xlink:href="#DejaVuSans-44" transform="translate(375.537109 0.765625)"/>
      <use xlink:href="#DejaVuSans-65" transform="translate(452.539062 0.765625)"/>
      <use xlink:href="#DejaVuSans-6e" transform="translate(514.0625 0.765625)"/>
      <use xlink:href="#DejaVuSans-73" transform="translate(577.441406 0.765625)"/>
      <use xlink:href="#DejaVuSans-69" transform="translate(629.541016 0.765625)"/>
      <use xlink:href="#DejaVuSans-74" transform="translate(657.324219 0.765625)"/>
      <use xlink:href="#DejaVuSans-79" transform="translate(696.533203 0.765625)"/>
      <use xlink:href="#DejaVuSans-20" transform="translate(755.712891 0.765625)"/>
      <use xlink:href="#DejaVuSans-5b" transform="translate(787.5 0.765625)"/>
      <use xlink:href="#DejaVuSans-63" transform="translate(826.513672 0.765625)"/>
      <use xlink:href="#DejaVuSans-6d" transform="translate(881.494141 0.765625)"/>
      <use xlink:href="#DejaVuSans-2212" transform="translate(979.863281 39.046875) scale(0.7)"/>
      <use xlink:href="#DejaVuSans-33" transform="translate(1038.515625 39.046875) scale(0.7)"/>
      <use xlink:href="#DejaVuSans-5d" transform="translate(1085.786133 0.765625)"/>
     </g>
    </g>
   </g>
   <g id="line2d_83">
    <path d="M 524.798055 301.054345 
L 541.930824 301.519524 
L 559.063593 302.371153 
L 576.196362 303.542753 
L 593.32913 304.976781 
L 610.461899 306.622214 
L 627.594668 308.432735 
L 644.727436 310.365349 
L 661.860205 312.379313 
L 678.992974 314.435309 
L 696.125743 316.494801 
L 713.258511 318.519563 
L 730.39128 320.471359 
L 747.524049 322.311762 
L 764.656818 324.002127 
L 781.789586 325.50371 
L 798.922355 326.777936 
L 816.055124 327.786822 
L 833.187892 328.493541 
L 850.320661 328.863096 
" clip-path="url(#p854cb026f0)" style="fill: none; stroke: #465970; stroke-width: 1.5; stroke-linecap: square"/>
   </g>
   <g id="line2d_84">
    <path d="M 524.798055 178.366943 
L 541.930824 178.738524 
L 559.063593 179.41787 
L 576.196362 180.350457 
L 593.32913 181.488738 
L 610.461899 182.790433 
L 627.594668 184.217239 
L 644.727436 185.733836 
L 661.860205 187.307119 
L 678.992974 188.905608 
L 696.125743 190.498985 
L 713.258511 192.057755 
L 730.39128 193.552995 
L 747.524049 194.956202 
L 764.656818 196.239216 
L 781.789586 197.374232 
L 798.922355 198.33388 
L 816.055124 199.09138 
L 833.187892 199.62077 
L 850.320661 199.897183 
" clip-path="url(#p854cb026f0)" style="fill: none; stroke-dasharray: 5.55,2.4; stroke-dashoffset: 0; stroke: #465970; stroke-width: 1.5"/>
   </g>
   <g id="line2d_85">
    <path d="M 524.798055 354.51347 
L 541.930824 355.237859 
L 559.063593 356.554259 
L 576.196362 358.356617 
L 593.32913 360.557196 
L 610.461899 363.081043 
L 627.594668 365.861995 
L 644.727436 368.839699 
L 661.860205 371.957291 
L 678.992974 375.159531 
L 696.125743 378.391283 
L 713.258511 381.596256 
L 730.39128 384.715993 
L 747.524049 387.689127 
L 764.656818 390.45093 
L 781.789586 392.933243 
L 798.922355 395.064856 
L 816.055124 396.772416 
L 833.187892 397.981939 
L 850.320661 398.620906 
" clip-path="url(#p854cb026f0)" style="fill: none; stroke: #c71d06; stroke-width: 1.5; stroke-linecap: square"/>
   </g>
   <g id="line2d_86">
    <path d="M 524.798055 121.39388 
L 541.930824 121.569145 
L 559.063593 121.885002 
L 576.196362 122.311963 
L 593.32913 122.824729 
L 610.461899 123.401416 
L 627.594668 124.022946 
L 644.727436 124.672549 
L 661.860205 125.335362 
L 678.992974 125.998089 
L 696.125743 126.648713 
L 713.258511 127.276248 
L 730.39128 127.870516 
L 747.524049 128.421948 
L 764.656818 128.921406 
L 781.789586 129.360011 
L 798.922355 129.728993 
L 816.055124 130.019543 
L 833.187892 130.222674 
L 850.320661 130.329096 
" clip-path="url(#p854cb026f0)" style="fill: none; stroke-dasharray: 5.55,2.4; stroke-dashoffset: 0; stroke: #c71d06; stroke-width: 1.5"/>
   </g>
   <g id="patch_9">
    <path d="M 508.521925 455.284875 
L 508.521925 28.396875 
" style="fill: none; stroke: #000000; stroke-width: 2; stroke-linejoin: miter; stroke-linecap: square"/>
   </g>
   <g id="patch_10">
    <path d="M 866.596791 455.284875 
L 866.596791 28.396875 
" style="fill: none; stroke: #000000; stroke-width: 2; stroke-linejoin: miter; stroke-linecap: square"/>
   </g>
   <g id="patch_11">
    <path d="M 508.521925 455.284875 
L 866.596791 455.284875 
" style="fill: none; stroke: #000000; stroke-width: 2; stroke-linejoin: miter; stroke-linecap: square"/>
   </g>
   <g id="patch_12">
    <path d="M 508.521925 28.396875 
L 866.596791 28.396875 
" style="fill: none; stroke: #000000; stroke-width: 2; stroke-linejoin: miter; stroke-linecap: square"/>
   </g>
   <g id="text_26">
    <!-- MAPI Steady State Concentrations -->
    <g transform="translate(516.337483 22.396875) scale(0.2 -0.2)">
     <defs>
      <path id="DejaVuSans-4d" d="M 628 4666 
L 1569 4666 
L 2759 1491 
L 3956 4666 
L 4897 4666 
L 4897 0 
L 4281 0 
L 4281 4097 
L 3078 897 
L 2444 897 
L 1241 4097 
L 1241 0 
L 628 0 
L 628 4666 
z
" transform="scale(0.015625)"/>
     </defs>
     <use xlink:href="#DejaVuSans-4d"/>
     <use xlink:href="#DejaVuSans-41" transform="translate(86.279297 0)"/>
     <use xlink:href="#DejaVuSans-50" transform="translate(154.6875 0)"/>
     <use xlink:href="#DejaVuSans-49" transform="translate(214.990234 0)"/>
     <use xlink:href="#DejaVuSans-20" transform="translate(244.482422 0)"/>
     <use xlink:href="#DejaVuSans-53" transform="translate(276.269531 0)"/>
     <use xlink:href="#DejaVuSans-74" transform="translate(339.746094 0)"/>
     <use xlink:href="#DejaVuSans-65" transform="translate(378.955078 0)"/>
     <use xlink:href="#DejaVuSans-61" transform="translate(440.478516 0)"/>
     <use xlink:href="#DejaVuSans-64" transform="translate(501.757812 0)"/>
     <use xlink:href="#DejaVuSans-79" transform="translate(565.234375 0)"/>
     <use xlink:href="#DejaVuSans-20" transform="translate(624.414062 0)"/>
     <use xlink:href="#DejaVuSans-53" transform="translate(656.201172 0)"/>
     <use xlink:href="#DejaVuSans-74" transform="translate(719.677734 0)"/>
     <use xlink:href="#DejaVuSans-61" transform="translate(758.886719 0)"/>
     <use xlink:href="#DejaVuSans-74" transform="translate(820.166016 0)"/>
     <use xlink:href="#DejaVuSans-65" transform="translate(859.375 0)"/>
     <use xlink:href="#DejaVuSans-20" transform="translate(920.898438 0)"/>
     <use xlink:href="#DejaVuSans-43" transform="translate(952.685547 0)"/>
     <use xlink:href="#DejaVuSans-6f" transform="translate(1022.509766 0)"/>
     <use xlink:href="#DejaVuSans-6e" transform="translate(1083.691406 0)"/>
     <use xlink:href="#DejaVuSans-63" transform="translate(1147.070312 0)"/>
     <use xlink:href="#DejaVuSans-65" transform="translate(1202.050781 0)"/>
     <use xlink:href="#DejaVuSans-6e" transform="translate(1263.574219 0)"/>
     <use xlink:href="#DejaVuSans-74" transform="translate(1326.953125 0)"/>
     <use xlink:href="#DejaVuSans-72" transform="translate(1366.162109 0)"/>
     <use xlink:href="#DejaVuSans-61" transform="translate(1407.275391 0)"/>
     <use xlink:href="#DejaVuSans-74" transform="translate(1468.554688 0)"/>
     <use xlink:href="#DejaVuSans-69" transform="translate(1507.763672 0)"/>
     <use xlink:href="#DejaVuSans-6f" transform="translate(1535.546875 0)"/>
     <use xlink:href="#DejaVuSans-6e" transform="translate(1596.728516 0)"/>
     <use xlink:href="#DejaVuSans-73" transform="translate(1660.107422 0)"/>
    </g>
   </g>
   <g id="legend_2">
    <g id="patch_13">
     <path d="M 738.766323 84.43125 
L 856.096791 84.43125 
Q 859.096791 84.43125 859.096791 81.43125 
L 859.096791 38.896875 
Q 859.096791 35.896875 856.096791 35.896875 
L 738.766323 35.896875 
Q 735.766323 35.896875 735.766323 38.896875 
L 735.766323 81.43125 
Q 735.766323 84.43125 738.766323 84.43125 
z
" style="fill: #ffffff; opacity: 0.8; stroke: #cccccc; stroke-linejoin: miter"/>
    </g>
    <g id="line2d_87">
     <path d="M 741.766323 48.044531 
L 756.766323 48.044531 
L 771.766323 48.044531 
" style="fill: none; stroke: #465970; stroke-width: 1.5; stroke-linecap: square"/>
    </g>
    <g id="text_27">
     <!-- Electrons -->
     <g transform="translate(783.766323 53.294531) scale(0.15 -0.15)">
      <use xlink:href="#DejaVuSans-45"/>
      <use xlink:href="#DejaVuSans-6c" transform="translate(63.183594 0)"/>
      <use xlink:href="#DejaVuSans-65" transform="translate(90.966797 0)"/>
      <use xlink:href="#DejaVuSans-63" transform="translate(152.490234 0)"/>
      <use xlink:href="#DejaVuSans-74" transform="translate(207.470703 0)"/>
      <use xlink:href="#DejaVuSans-72" transform="translate(246.679688 0)"/>
      <use xlink:href="#DejaVuSans-6f" transform="translate(285.542969 0)"/>
      <use xlink:href="#DejaVuSans-6e" transform="translate(346.724609 0)"/>
      <use xlink:href="#DejaVuSans-73" transform="translate(410.103516 0)"/>
     </g>
    </g>
    <g id="line2d_88">
     <path d="M 741.766323 70.061719 
L 756.766323 70.061719 
L 771.766323 70.061719 
" style="fill: none; stroke-dasharray: 5.55,2.4; stroke-dashoffset: 0; stroke: #465970; stroke-width: 1.5"/>
    </g>
    <g id="text_28">
     <!-- Holes -->
     <g transform="translate(783.766323 75.311719) scale(0.15 -0.15)">
      <use xlink:href="#DejaVuSans-48"/>
      <use xlink:href="#DejaVuSans-6f" transform="translate(75.195312 0)"/>
      <use xlink:href="#DejaVuSans-6c" transform="translate(136.376953 0)"/>
      <use xlink:href="#DejaVuSans-65" transform="translate(164.160156 0)"/>
      <use xlink:href="#DejaVuSans-73" transform="translate(225.683594 0)"/>
     </g>
    </g>
   </g>
  </g>
  <g id="axes_3">
   <g id="patch_14">
    <path d="M 932.24385 455.284875 
L 1200.8 455.284875 
L 1200.8 28.396875 
L 932.24385 28.396875 
z
" style="fill: #ffffff"/>
   </g>
   <g id="matplotlib.axis_5">
    <g id="xtick_11">
     <g id="line2d_89">
      <path d="M 995.849254 455.284875 
L 995.849254 28.396875 
" clip-path="url(#p6d10ac294d)" style="fill: none; stroke-dasharray: 2.96,1.28; stroke-dashoffset: 0; stroke: #b0b0b0; stroke-width: 0.8"/>
     </g>
     <g id="line2d_90">
      <g>
       <use xlink:href="#me59e7e543c" x="995.849254" y="455.284875" style="stroke: #000000; stroke-width: 0.8"/>
      </g>
     </g>
    </g>
    <g id="xtick_12">
     <g id="line2d_91">
      <path d="M 1124.34502 455.284875 
L 1124.34502 28.396875 
" clip-path="url(#p6d10ac294d)" style="fill: none; stroke-dasharray: 2.96,1.28; stroke-dashoffset: 0; stroke: #b0b0b0; stroke-width: 0.8"/>
     </g>
     <g id="line2d_92">
      <g>
       <use xlink:href="#me59e7e543c" x="1124.34502" y="455.284875" style="stroke: #000000; stroke-width: 0.8"/>
      </g>
     </g>
    </g>
   </g>
   <g id="matplotlib.axis_6">
    <g id="ytick_29">
     <g id="line2d_93">
      <path d="M 932.24385 455.284875 
L 1200.8 455.284875 
" clip-path="url(#p6d10ac294d)" style="fill: none; stroke-dasharray: 2.96,1.28; stroke-dashoffset: 0; stroke: #b0b0b0; stroke-width: 0.8"/>
     </g>
     <g id="line2d_94">
      <g>
       <use xlink:href="#ma7fc75725d" x="932.24385" y="455.284875" style="stroke: #000000; stroke-width: 0.8"/>
      </g>
     </g>
     <g id="text_29">
      <!-- 1.10 -->
      <g transform="translate(880.7126 462.883313) scale(0.2 -0.2)">
       <defs>
        <path id="DejaVuSans-2e" d="M 684 794 
L 1344 794 
L 1344 0 
L 684 0 
L 684 794 
z
" transform="scale(0.015625)"/>
       </defs>
       <use xlink:href="#DejaVuSans-31"/>
       <use xlink:href="#DejaVuSans-2e" transform="translate(63.623047 0)"/>
       <use xlink:href="#DejaVuSans-31" transform="translate(95.410156 0)"/>
       <use xlink:href="#DejaVuSans-30" transform="translate(159.033203 0)"/>
      </g>
     </g>
    </g>
    <g id="ytick_30">
     <g id="line2d_95">
      <path d="M 932.24385 348.562875 
L 1200.8 348.562875 
" clip-path="url(#p6d10ac294d)" style="fill: none; stroke-dasharray: 2.96,1.28; stroke-dashoffset: 0; stroke: #b0b0b0; stroke-width: 0.8"/>
     </g>
     <g id="line2d_96">
      <g>
       <use xlink:href="#ma7fc75725d" x="932.24385" y="348.562875" style="stroke: #000000; stroke-width: 0.8"/>
      </g>
     </g>
     <g id="text_30">
      <!-- 1.15 -->
      <g transform="translate(880.7126 356.161313) scale(0.2 -0.2)">
       <defs>
        <path id="DejaVuSans-35" d="M 691 4666 
L 3169 4666 
L 3169 4134 
L 1269 4134 
L 1269 2991 
Q 1406 3038 1543 3061 
Q 1681 3084 1819 3084 
Q 2600 3084 3056 2656 
Q 3513 2228 3513 1497 
Q 3513 744 3044 326 
Q 2575 -91 1722 -91 
Q 1428 -91 1123 -41 
Q 819 9 494 109 
L 494 744 
Q 775 591 1075 516 
Q 1375 441 1709 441 
Q 2250 441 2565 725 
Q 2881 1009 2881 1497 
Q 2881 1984 2565 2268 
Q 2250 2553 1709 2553 
Q 1456 2553 1204 2497 
Q 953 2441 691 2322 
L 691 4666 
z
" transform="scale(0.015625)"/>
       </defs>
       <use xlink:href="#DejaVuSans-31"/>
       <use xlink:href="#DejaVuSans-2e" transform="translate(63.623047 0)"/>
       <use xlink:href="#DejaVuSans-31" transform="translate(95.410156 0)"/>
       <use xlink:href="#DejaVuSans-35" transform="translate(159.033203 0)"/>
      </g>
     </g>
    </g>
    <g id="ytick_31">
     <g id="line2d_97">
      <path d="M 932.24385 241.840875 
L 1200.8 241.840875 
" clip-path="url(#p6d10ac294d)" style="fill: none; stroke-dasharray: 2.96,1.28; stroke-dashoffset: 0; stroke: #b0b0b0; stroke-width: 0.8"/>
     </g>
     <g id="line2d_98">
      <g>
       <use xlink:href="#ma7fc75725d" x="932.24385" y="241.840875" style="stroke: #000000; stroke-width: 0.8"/>
      </g>
     </g>
     <g id="text_31">
      <!-- 1.20 -->
      <g transform="translate(880.7126 249.439313) scale(0.2 -0.2)">
       <use xlink:href="#DejaVuSans-31"/>
       <use xlink:href="#DejaVuSans-2e" transform="translate(63.623047 0)"/>
       <use xlink:href="#DejaVuSans-32" transform="translate(95.410156 0)"/>
       <use xlink:href="#DejaVuSans-30" transform="translate(159.033203 0)"/>
      </g>
     </g>
    </g>
    <g id="ytick_32">
     <g id="line2d_99">
      <path d="M 932.24385 135.118875 
L 1200.8 135.118875 
" clip-path="url(#p6d10ac294d)" style="fill: none; stroke-dasharray: 2.96,1.28; stroke-dashoffset: 0; stroke: #b0b0b0; stroke-width: 0.8"/>
     </g>
     <g id="line2d_100">
      <g>
       <use xlink:href="#ma7fc75725d" x="932.24385" y="135.118875" style="stroke: #000000; stroke-width: 0.8"/>
      </g>
     </g>
     <g id="text_32">
      <!-- 1.25 -->
      <g transform="translate(880.7126 142.717313) scale(0.2 -0.2)">
       <use xlink:href="#DejaVuSans-31"/>
       <use xlink:href="#DejaVuSans-2e" transform="translate(63.623047 0)"/>
       <use xlink:href="#DejaVuSans-32" transform="translate(95.410156 0)"/>
       <use xlink:href="#DejaVuSans-35" transform="translate(159.033203 0)"/>
      </g>
     </g>
    </g>
    <g id="ytick_33">
     <g id="line2d_101">
      <path d="M 932.24385 28.396875 
L 1200.8 28.396875 
" clip-path="url(#p6d10ac294d)" style="fill: none; stroke-dasharray: 2.96,1.28; stroke-dashoffset: 0; stroke: #b0b0b0; stroke-width: 0.8"/>
     </g>
     <g id="line2d_102">
      <g>
       <use xlink:href="#ma7fc75725d" x="932.24385" y="28.396875" style="stroke: #000000; stroke-width: 0.8"/>
      </g>
     </g>
     <g id="text_33">
      <!-- 1.30 -->
      <g transform="translate(880.7126 35.995313) scale(0.2 -0.2)">
       <use xlink:href="#DejaVuSans-31"/>
       <use xlink:href="#DejaVuSans-2e" transform="translate(63.623047 0)"/>
       <use xlink:href="#DejaVuSans-33" transform="translate(95.410156 0)"/>
       <use xlink:href="#DejaVuSans-30" transform="translate(159.033203 0)"/>
      </g>
     </g>
    </g>
    <g id="text_34">
     <!-- QFLS [eV] -->
     <g transform="translate(872.553225 291.359625) rotate(-90) scale(0.2 -0.2)">
      <defs>
       <path id="DejaVuSans-51" d="M 2522 4238 
Q 1834 4238 1429 3725 
Q 1025 3213 1025 2328 
Q 1025 1447 1429 934 
Q 1834 422 2522 422 
Q 3209 422 3611 934 
Q 4013 1447 4013 2328 
Q 4013 3213 3611 3725 
Q 3209 4238 2522 4238 
z
M 3406 84 
L 4238 -825 
L 3475 -825 
L 2784 -78 
Q 2681 -84 2626 -87 
Q 2572 -91 2522 -91 
Q 1538 -91 948 567 
Q 359 1225 359 2328 
Q 359 3434 948 4092 
Q 1538 4750 2522 4750 
Q 3503 4750 4090 4092 
Q 4678 3434 4678 2328 
Q 4678 1516 4351 937 
Q 4025 359 3406 84 
z
" transform="scale(0.015625)"/>
       <path id="DejaVuSans-4c" d="M 628 4666 
L 1259 4666 
L 1259 531 
L 3531 531 
L 3531 0 
L 628 0 
L 628 4666 
z
" transform="scale(0.015625)"/>
       <path id="DejaVuSans-56" d="M 1831 0 
L 50 4666 
L 709 4666 
L 2188 738 
L 3669 4666 
L 4325 4666 
L 2547 0 
L 1831 0 
z
" transform="scale(0.015625)"/>
      </defs>
      <use xlink:href="#DejaVuSans-51"/>
      <use xlink:href="#DejaVuSans-46" transform="translate(78.710938 0)"/>
      <use xlink:href="#DejaVuSans-4c" transform="translate(136.230469 0)"/>
      <use xlink:href="#DejaVuSans-53" transform="translate(191.943359 0)"/>
      <use xlink:href="#DejaVuSans-20" transform="translate(255.419922 0)"/>
      <use xlink:href="#DejaVuSans-5b" transform="translate(287.207031 0)"/>
      <use xlink:href="#DejaVuSans-65" transform="translate(326.220703 0)"/>
      <use xlink:href="#DejaVuSans-56" transform="translate(387.744141 0)"/>
      <use xlink:href="#DejaVuSans-5d" transform="translate(456.152344 0)"/>
     </g>
    </g>
   </g>
   <g id="patch_15">
    <path d="M 944.450948 2803.168875 
L 1047.24756 2803.168875 
L 1047.24756 116.951196 
L 944.450948 116.951196 
z
" clip-path="url(#p6d10ac294d)" style="fill: #465970; opacity: 0.7"/>
   </g>
   <g id="patch_16">
    <path d="M 957.300525 2803.168875 
L 1060.097137 2803.168875 
L 1060.097137 176.976859 
L 957.300525 176.976859 
z
" clip-path="url(#p6d10ac294d)" style="fill: #c71d06; opacity: 0.7"/>
   </g>
   <g id="patch_17">
    <path d="M 1072.946713 2803.168875 
L 1175.743326 2803.168875 
L 1175.743326 233.962378 
L 1072.946713 233.962378 
z
" clip-path="url(#p6d10ac294d)" style="fill: #465970; opacity: 0.7"/>
   </g>
   <g id="patch_18">
    <path d="M 1085.79629 2803.168875 
L 1188.592902 2803.168875 
L 1188.592902 232.571528 
L 1085.79629 232.571528 
z
" clip-path="url(#p6d10ac294d)" style="fill: #c71d06; opacity: 0.7"/>
   </g>
   <g id="patch_19">
    <path d="M 932.24385 455.284875 
L 932.24385 28.396875 
" style="fill: none; stroke: #000000; stroke-width: 2; stroke-linejoin: miter; stroke-linecap: square"/>
   </g>
   <g id="patch_20">
    <path d="M 1200.8 455.284875 
L 1200.8 28.396875 
" style="fill: none; stroke: #000000; stroke-width: 2; stroke-linejoin: miter; stroke-linecap: square"/>
   </g>
   <g id="patch_21">
    <path d="M 932.24385 455.284875 
L 1200.8 455.284875 
" style="fill: none; stroke: #000000; stroke-width: 2; stroke-linejoin: miter; stroke-linecap: square"/>
   </g>
   <g id="patch_22">
    <path d="M 932.24385 28.396875 
L 1200.8 28.396875 
" style="fill: none; stroke: #000000; stroke-width: 2; stroke-linejoin: miter; stroke-linecap: square"/>
   </g>
   <g id="legend_3">
    <g id="patch_23">
     <path d="M 1093.261719 84.43125 
L 1190.3 84.43125 
Q 1193.3 84.43125 1193.3 81.43125 
L 1193.3 38.896875 
Q 1193.3 35.896875 1190.3 35.896875 
L 1093.261719 35.896875 
Q 1090.261719 35.896875 1090.261719 38.896875 
L 1090.261719 81.43125 
Q 1090.261719 84.43125 1093.261719 84.43125 
z
" style="fill: #ffffff; opacity: 0.8; stroke: #cccccc; stroke-linejoin: miter"/>
    </g>
    <g id="patch_24">
     <path d="M 1096.261719 53.294531 
L 1126.261719 53.294531 
L 1126.261719 42.794531 
L 1096.261719 42.794531 
z
" style="fill: #465970; opacity: 0.7"/>
    </g>
    <g id="text_35">
     <!-- Before -->
     <g transform="translate(1138.261719 53.294531) scale(0.15 -0.15)">
      <defs>
       <path id="DejaVuSans-42" d="M 1259 2228 
L 1259 519 
L 2272 519 
Q 2781 519 3026 730 
Q 3272 941 3272 1375 
Q 3272 1813 3026 2020 
Q 2781 2228 2272 2228 
L 1259 2228 
z
M 1259 4147 
L 1259 2741 
L 2194 2741 
Q 2656 2741 2882 2914 
Q 3109 3088 3109 3444 
Q 3109 3797 2882 3972 
Q 2656 4147 2194 4147 
L 1259 4147 
z
M 628 4666 
L 2241 4666 
Q 2963 4666 3353 4366 
Q 3744 4066 3744 3513 
Q 3744 3084 3544 2831 
Q 3344 2578 2956 2516 
Q 3422 2416 3680 2098 
Q 3938 1781 3938 1306 
Q 3938 681 3513 340 
Q 3088 0 2303 0 
L 628 0 
L 628 4666 
z
" transform="scale(0.015625)"/>
       <path id="DejaVuSans-66" d="M 2375 4863 
L 2375 4384 
L 1825 4384 
Q 1516 4384 1395 4259 
Q 1275 4134 1275 3809 
L 1275 3500 
L 2222 3500 
L 2222 3053 
L 1275 3053 
L 1275 0 
L 697 0 
L 697 3053 
L 147 3053 
L 147 3500 
L 697 3500 
L 697 3744 
Q 697 4328 969 4595 
Q 1241 4863 1831 4863 
L 2375 4863 
z
" transform="scale(0.015625)"/>
      </defs>
      <use xlink:href="#DejaVuSans-42"/>
      <use xlink:href="#DejaVuSans-65" transform="translate(68.603516 0)"/>
      <use xlink:href="#DejaVuSans-66" transform="translate(130.126953 0)"/>
      <use xlink:href="#DejaVuSans-6f" transform="translate(165.332031 0)"/>
      <use xlink:href="#DejaVuSans-72" transform="translate(226.513672 0)"/>
      <use xlink:href="#DejaVuSans-65" transform="translate(265.376953 0)"/>
     </g>
    </g>
    <g id="patch_25">
     <path d="M 1096.261719 75.311719 
L 1126.261719 75.311719 
L 1126.261719 64.811719 
L 1096.261719 64.811719 
z
" style="fill: #c71d06; opacity: 0.7"/>
    </g>
    <g id="text_36">
     <!-- After -->
     <g transform="translate(1138.261719 75.311719) scale(0.15 -0.15)">
      <use xlink:href="#DejaVuSans-41"/>
      <use xlink:href="#DejaVuSans-66" transform="translate(64.783203 0)"/>
      <use xlink:href="#DejaVuSans-74" transform="translate(98.238281 0)"/>
      <use xlink:href="#DejaVuSans-65" transform="translate(137.447266 0)"/>
      <use xlink:href="#DejaVuSans-72" transform="translate(198.970703 0)"/>
     </g>
    </g>
   </g>
  </g>
 </g>
 <defs>
  <clipPath id="pc32df7f471">
   <rect x="84.8" y="28.396875" width="358.074866" height="426.888"/>
  </clipPath>
  <clipPath id="p854cb026f0">
   <rect x="508.521925" y="28.396875" width="358.074866" height="426.888"/>
  </clipPath>
  <clipPath id="p6d10ac294d">
   <rect x="932.24385" y="28.396875" width="268.55615" height="426.888"/>
  </clipPath>
 </defs>
</svg>
